<svg width="96" height="53" viewBox="0 0 96 53" fill="none" xmlns="http://www.w3.org/2000/svg">
<path d="M86.9027 47.6241L92.8776 12H7.81857L2.05297 46.3759C1.64575 48.8039 3.63836 51 6.24846 51H82.7072C84.7972 51 86.5766 49.5682 86.9027 47.6241Z" fill="#3081CB"/>
<path d="M2.05297 46.3759L9.0973 4.37594C9.42337 2.43183 11.2028 1 13.2928 1H89.7515C92.3616 1 94.3543 3.19614 93.947 5.62406L86.9027 47.6241M2.05297 46.3759C1.64575 48.8039 3.63836 51 6.24846 51H82.7072C84.7972 51 86.5766 49.5682 86.9027 47.6241M2.05297 46.3759L7.81857 12H92.8776L86.9027 47.6241" stroke="black" stroke-width="2"/>
<circle cx="14.6672" cy="7" r="2" fill="black"/>
<circle cx="21.6672" cy="7" r="2" fill="black"/>
<circle cx="28.6672" cy="7" r="2" fill="black"/>
<path d="M26.25 37.9613C25.0193 37.9613 23.958 37.7131 23.066 37.2166C22.1913 36.7201 21.5593 35.9497 21.17 34.9054C20.7981 33.8611 20.7409 32.5258 20.9985 30.8994C21.267 29.2045 21.7712 27.8263 22.5113 26.7649C23.2515 25.7035 24.1462 24.9245 25.1955 24.428C26.2621 23.9316 27.4194 23.6833 28.6674 23.6833C29.3781 23.6833 30.0506 23.7604 30.6848 23.9144C31.3218 24.0514 31.832 24.2226 32.2155 24.428L31.2166 26.3027C30.825 26.1486 30.3627 26.0031 29.8297 25.8661C29.2967 25.7291 28.7876 25.6607 28.3022 25.6607C27.3662 25.6607 26.5637 25.8575 25.8947 26.2513C25.2257 26.6451 24.6828 27.2271 24.2661 27.9975C23.8494 28.7679 23.5503 29.7267 23.3686 30.8737C23.195 31.9694 23.1946 32.9024 23.3672 33.6728C23.5399 34.4432 23.8897 35.0253 24.4167 35.419C24.9436 35.8128 25.6491 36.0097 26.5331 36.0097C27.2958 36.0097 27.9753 35.9326 28.5717 35.7785C29.1855 35.6245 29.7526 35.4361 30.2732 35.2136L29.956 37.2166C29.45 37.4563 28.9015 37.6361 28.3105 37.7559C27.7342 37.8929 27.0473 37.9613 26.25 37.9613ZM46.403 30.7966C46.2213 31.9437 45.904 32.9623 45.451 33.8526C45.018 34.7257 44.4667 35.4704 43.7971 36.0867C43.1448 36.703 42.3856 37.1738 41.5194 37.4991C40.6733 37.8073 39.7562 37.9613 38.7682 37.9613C37.8495 37.9613 37.0246 37.8073 36.2934 37.4991C35.5649 37.1738 34.9635 36.703 34.4891 36.0867C34.0147 35.4704 33.682 34.7257 33.491 33.8526C33.32 32.9623 33.3253 31.9437 33.507 30.7966C33.7483 29.273 34.2117 27.989 34.8971 26.9447C35.5852 25.8832 36.458 25.0786 37.5154 24.5308C38.5755 23.9658 39.7729 23.6833 41.1076 23.6833C42.3729 23.6833 43.4375 23.9658 44.3014 24.5308C45.1853 25.0786 45.8118 25.8832 46.1811 26.9447C46.5703 27.989 46.6443 29.273 46.403 30.7966ZM35.873 30.7966C35.7021 31.8752 35.6917 32.8168 35.8416 33.6214C36.0115 34.409 36.3659 35.0167 36.9048 35.4447C37.4437 35.8727 38.1811 36.0867 39.1171 36.0867C40.0531 36.0867 40.8583 35.8727 41.5328 35.4447C42.2072 35.0167 42.7455 34.409 43.1476 33.6214C43.5697 32.8168 43.8661 31.8752 44.037 30.7966C44.2105 29.701 44.211 28.7679 44.0383 27.9975C43.8657 27.2271 43.5085 26.6365 42.9669 26.2256C42.4454 25.7976 41.708 25.5836 40.7546 25.5836C39.3333 25.5836 38.2288 26.0459 37.441 26.9703C36.6532 27.8948 36.1306 29.1703 35.873 30.7966ZM57.8638 23.6833C59.5278 23.6833 60.7207 24.0856 61.4426 24.8903C62.1672 25.6778 62.3885 26.9618 62.1065 28.7423L60.6871 37.7045H58.4251L59.8201 28.8963C59.9964 27.7835 59.8766 26.9532 59.4607 26.4054C59.0448 25.8575 58.2995 25.5836 57.2248 25.5836C55.6822 25.5836 54.5484 26.0116 53.8235 26.8676C53.0985 27.7236 52.6086 28.9563 52.3538 30.5655L51.2231 37.7045H48.9351L51.1151 23.9401H52.9611L53.0022 25.8147H53.1322C53.5201 25.3354 53.9638 24.9416 54.4633 24.6335C54.9828 24.3082 55.5321 24.0685 56.1112 23.9144C56.6903 23.7604 57.2745 23.6833 57.8638 23.6833ZM68.0753 37.7045L64.9774 23.9401H67.4214L69.1001 32.055C69.1791 32.4316 69.26 32.851 69.3428 33.3133C69.4256 33.7755 69.4938 34.2206 69.5473 34.6486C69.6036 35.0595 69.6347 35.4105 69.6406 35.7015H69.7446C69.86 35.4105 70.0123 35.0509 70.2014 34.623C70.4079 34.195 70.6257 33.7498 70.8549 33.2876C71.1014 32.8254 71.3138 32.4145 71.4921 32.055L75.7414 23.9401H78.1854L70.7013 37.7045H68.0753Z" fill="white"/>
<path d="M8.69681 36.1136L8.92835 34.7256C8.9472 34.6125 8.99284 34.5079 9.06528 34.4115C9.13889 34.3081 9.25655 34.2152 9.41826 34.1328L14.7545 31.2869C14.9102 31.1979 15.0713 31.119 15.2378 31.0502C15.4043 30.9813 15.5833 30.9219 15.7748 30.872C15.5963 30.8442 15.4332 30.8082 15.2856 30.7641C15.1379 30.7199 14.9992 30.6646 14.8694 30.5981L10.355 28.517C10.218 28.4511 10.1281 28.378 10.0851 28.2978C10.0433 28.2104 10.033 28.1032 10.0542 27.976L10.284 26.5986L18.0391 30.2859L17.9048 31.0912L8.69681 36.1136Z" fill="white"/>
<path d="M84.9243 40.388H75.0683V38.98H84.9243V40.388Z" fill="white"/>
</svg>
